<?xml version="1.0" encoding="UTF-8" standalone="no"?>
<!-- Created with Inkscape (http://www.inkscape.org/) -->

<svg
   xmlns:dc="http://purl.org/dc/elements/1.1/"
   xmlns:cc="http://creativecommons.org/ns#"
   xmlns:rdf="http://www.w3.org/1999/02/22-rdf-syntax-ns#"
   xmlns:svg="http://www.w3.org/2000/svg"
   xmlns="http://www.w3.org/2000/svg"
   xmlns:sodipodi="http://sodipodi.sourceforge.net/DTD/sodipodi-0.dtd"
   xmlns:inkscape="http://www.inkscape.org/namespaces/inkscape"
   id="svg3336"
   version="1.1"
   inkscape:version="0.91 r13725"
   width="297mm"
   height="420mm"
   viewBox="0 0 1052.3622 1488.189"
   sodipodi:docname="logoFINAL.svg">
  <metadata
     id="metadata3342">
    <rdf:RDF>
      <cc:Work
         rdf:about="">
        <dc:format>image/svg+xml</dc:format>
        <dc:type
           rdf:resource="http://purl.org/dc/dcmitype/StillImage" />
        <dc:title></dc:title>
      </cc:Work>
    </rdf:RDF>
  </metadata>
  <defs
     id="defs3340" />
  <sodipodi:namedview
     pagecolor="#ffffff"
     bordercolor="#666666"
     borderopacity="1"
     objecttolerance="10"
     gridtolerance="10"
     guidetolerance="10"
     inkscape:pageopacity="0"
     inkscape:pageshadow="2"
     inkscape:window-width="1680"
     inkscape:window-height="987"
     id="namedview3338"
     showgrid="false"
     units="mm"
     inkscape:zoom="0.46"
     inkscape:cx="378"
     inkscape:cy="950.2197"
     inkscape:window-x="1432"
     inkscape:window-y="-8"
     inkscape:window-maximized="1"
     inkscape:current-layer="svg3336" />
  <path
     style="fill:#FFFFFF"
     d="m 486.27466,1296.1237 -3.3536,-0.023 -156.01535,-87.8507 -156.01536,-87.8507 -3.81254,-0.927 -3.81253,-0.9271 -2.11227,-2.5353 -2.11226,-2.5354 -57.0311,-31.9473 -57.031095,-31.9471 -1.760219,-2.3138 -1.760219,-2.3138 0,-3.033 0,-3.033 2.575186,-2.3305 2.575187,-2.3305 2.749687,0 2.749688,0 53.466435,30.1493 c 29.40655,16.5821 53.54858,30.0478 53.64895,29.9237 0.1004,-0.1239 -1.12868,-40.475 -2.73123,-89.6688 l -2.91372,-89.44329 -61.982906,-32.364 -61.982918,-32.3639 -2.526238,-2.4644 -2.526224,-2.4643 0,-3.4199 0,-3.4199 2.212848,-2.2128 2.212849,-2.21277 2.987923,0 2.987923,0 58.244494,30.43307 c 32.034479,16.7381 58.558199,30.1193 58.941589,29.736 0.3834,-0.3834 -0.6198,-42.7523 -2.22933,-94.15298 -1.60953,-51.40079 -3.26039,-97.25802 -3.66858,-101.905 l -0.74215,-8.44905 -62.715323,-29.57168 -62.71531,-29.5717 -1.278905,-2.37173 c -0.703398,-1.30459 -1.278905,-3.63563 -1.278905,-5.18021 l 0,-2.80834 2.212849,-2.21285 2.212849,-2.21285 3.010411,0 3.010425,0 58.306849,27.53189 c 32.06875,15.14246 58.51924,27.31951 58.77884,27.05984 0.25961,-0.25952 -0.99345,-44.66801 -2.78458,-98.6854 l -3.25659,-98.21343 -0.7703,-0.77032 c -0.42368,-0.42366 -28.55126,-13.76172 -62.505759,-29.64012 l -61.735432,-28.8698 -1.760219,-2.27226 -1.760219,-2.27227 0,-3.15071 0,-3.15071 2.357328,-2.35733 2.357327,-2.35732 4.331505,0.74175 4.331505,0.74176 61.959712,29.17687 61.959712,29.17688 2.11226,-0.12307 c 1.16175,-0.0677 40.33493,-13.36619 87.05151,-29.55221 l 84.93923,-29.42914 -11.71412,-5.59975 C 303.72147,390.90239 275.4141,377.65369 247.259,364.54068 l -51.1911,-23.84182 -1.84411,-3.56394 -1.84414,-3.56393 1.51648,-2.77286 c 0.83406,-1.52506 2.20432,-3.2384 3.04501,-3.80742 0.84068,-0.56902 2.75001,-1.04427 4.24293,-1.05613 l 2.71441,-0.0215 69.80662,32.59894 c 38.39364,17.92942 70.44029,32.59852 71.21479,32.59802 0.77449,-5.1e-4 36.57735,-12.19218 79.5619,-27.09261 42.98455,-14.90043 78.3093,-27.2432 78.49946,-27.42839 0.19015,-0.18519 -26.64674,-11.6897 -59.63753,-25.56557 l -59.98327,-25.22885 -1.84674,-3.5712 -1.84675,-3.5712 1.51648,-2.77286 c 0.83406,-1.52506 2.20432,-3.23841 3.04501,-3.80742 0.84068,-0.56902 2.71598,-1.04428 4.1673,-1.05613 l 2.63879,-0.0215 67.55868,28.39819 c 37.15726,15.61902 68.28743,28.38128 69.17814,28.36061 0.89071,-0.0207 37.48157,-12.48304 81.31302,-27.69412 43.83145,-15.21108 80.90166,-27.6468 82.37826,-27.63494 1.47658,0.0113 3.37255,0.48711 4.21323,1.05613 0.84069,0.56901 2.21095,2.28235 3.04501,3.80742 l 1.51648,2.77285 -1.90121,3.67651 -1.90119,3.67651 -72.69716,25.1291 -72.69716,25.12909 2.22399,1.24461 c 1.22318,0.68452 33.70166,14.50085 72.1744,30.70292 l 69.95043,29.45834 81.21965,-29.54132 81.21961,-29.54131 2.6499,0.0215 c 1.45732,0.0113 3.33766,0.48711 4.17834,1.05613 0.84068,0.569 2.21083,2.28234 3.0449,3.80742 l 1.5166,2.77285 -1.88104,3.63753 -1.88118,3.63753 -73.31437,26.62985 -73.31443,26.62983 1.03763,0.90396 c 0.57069,0.49717 33.7518,14.61989 73.73583,31.38379 39.98397,16.76392 73.18071,30.47985 73.7706,30.47985 0.58974,0 33.48331,-12.0399 73.09669,-26.75533 l 72.02441,-26.75533 3.019,0 3.019,0 2.2129,2.21284 2.2128,2.21285 0,3.41986 0,3.41985 -2.4643,2.30476 -2.4643,2.30476 -71.11289,26.32206 -71.11285,26.32208 -0.36162,98.10893 c -0.19883,53.95993 -0.0873,98.10896 0.24883,98.10896 0.33571,0 31.23192,-11.7187 68.65812,-26.04153 l 68.04771,-26.04136 3.0678,-0.01 3.0678,-0.01 2.2129,2.21285 2.2128,2.21285 0,3.1507 0,3.15071 -1.7602,2.28531 -1.7602,2.2853 -71.72857,27.35588 -71.7285,27.35606 -1.04557,2.66384 -1.04557,2.66385 -0.0986,101.74066 -0.0986,101.74082 1.0919,0 c 0.60059,0 31.80927,-12.6677 69.35263,-28.1503 l 68.26068,-28.1503 3.0677,-0.014 3.0679,-0.014 2.2128,2.2129 2.213,2.2128 0,3.1507 0,3.1508 -1.7603,2.2721 -1.7602,2.2722 -72.87304,29.9453 -72.87307,29.9452 0,92.12203 0,92.1217 1.76022,-0.6867 c 0.96812,-0.3777 31.30149,-13.4359 67.40766,-29.0183 l 65.64743,-28.3326 2.9006,0 2.9004,0 2.2128,2.2128 2.2129,2.2128 0,3.1508 0,3.1506 -1.7602,2.2901 -1.7602,2.2901 -262.79156,113.4495 -262.79153,113.4494 -3.3536,-0.023 z m 11.29626,-21.7654 c 1.23653,-0.3949 40.26898,-17.1513 86.73876,-37.2364 l 84.49052,-36.5183 -0.54011,-93.3981 c -0.29707,-51.3691 -0.72819,-93.6182 -0.95808,-93.887 -0.22987,-0.2687 -39.49454,15.5779 -87.25482,35.2148 l -86.83686,35.7034 0.13026,50.6839 c 0.0717,27.8763 0.54689,70.8152 1.05617,95.42 l 0.92596,44.7359 2.24825,-0.7182 z m -20.06035,-1.1996 c 0.22187,-0.2218 0.001,-42.8497 -0.48857,-94.7284 l -0.89196,-94.3249 -72.43368,-37.9654 c -39.83853,-20.881 -73.00447,-38.1766 -73.70209,-38.4349 l -1.2684,-0.4694 0.19577,51.1637 c 0.10772,28.1401 0.58292,69.5274 1.05613,91.9717 l 0.86036,40.8081 73.13453,41.1914 c 40.22398,22.6553 73.31604,41.01 73.53791,40.7881 z m 254.50235,-99.8192 c 24.86923,-10.7562 63.1182,-27.2708 84.99772,-36.6991 l 39.78095,-17.1422 0,-91.9223 0,-91.92249 -1.19371,0 c -0.65649,0 -39.44456,15.7319 -86.19559,34.9595 l -85.00186,34.95939 0.31109,55.5159 c 0.17111,30.5337 0.71014,72.6815 1.19787,93.6619 l 0.88677,38.1461 45.21676,-19.5567 z m -419.60467,7.214 1.28456,0.1225 -0.93045,-51.7504 c -0.51173,-28.4627 -0.93137,-69.5582 -0.93251,-91.3233 l -0.001,-39.57289 -70.05672,-36.7035 -70.05672,-36.7037 -0.42108,3.8368 c -0.2316,2.1103 0.87666,42.4013 2.46278,89.53529 1.58613,47.1342 3.21276,86.0273 3.61472,86.4293 0.40198,0.4019 30.66083,17.6681 67.2419,38.3692 36.58107,20.7011 67.08909,37.6934 67.7956,37.7607 z m 185.58079,-116.3292 c 3.05687,-1.2231 42.10623,-17.2569 86.77637,-35.6306 l 81.21844,-33.40669 -0.48574,-106.8645 c -0.26714,-58.77538 -0.60064,-106.98665 -0.74109,-107.13606 -0.14054,-0.1494 -39.19307,14.61954 -86.78358,32.81992 -47.59049,18.20039 -86.77836,33.34164 -87.08412,33.64754 -0.30577,0.3057 -0.0839,49.6595 0.49292,109.6751 l 1.04886,109.11929 5.55794,-2.224 z m -23.67962,-0.4695 1.24559,0.042 -1.02128,-108.78159 -1.02126,-108.7816 -0.98873,-1.046 c -0.54381,-0.5754 -33.59604,-16.49033 -73.44943,-35.36649 -39.85339,-18.87631 -72.65312,-34.16079 -72.88829,-33.96547 -0.23517,0.19531 0.0234,47.89316 0.57446,105.99536 l 1.00204,105.6406 72.65067,38.10999 c 39.95786,20.9605 73.21116,38.1293 73.89623,38.1527 z m 210.71255,-76.31039 c 0.53589,-0.2159 39.33052,-16.1958 86.21029,-35.5112 l 85.23602,-35.1188 0.60946,-104.29071 c 0.33514,-57.35976 0.47469,-104.48773 0.31022,-104.72881 -0.16462,-0.24094 -39.65413,14.58673 -87.75464,32.95046 l -87.45546,33.38868 0,32.64995 c 0,17.95762 0.42071,66.04073 0.93489,106.85133 l 0.93489,74.2016 0.97433,-0.3925 z m -375.65851,-9.6773 1.05613,0.1324 0,-39.9019 c 0,-21.9458 -0.41899,-69.3849 -0.93107,-105.41994 l -0.93107,-65.51817 -71.84365,-33.9704 -71.84365,-33.9704 -0.72451,0.72451 -0.72451,0.72451 3.25569,101.70123 c 1.79064,55.93566 3.52699,102.01806 3.85857,102.40536 0.33158,0.3872 31.46592,16.962 69.18741,36.833 37.7215,19.8709 69.05979,36.1882 69.64066,36.2606 z M 493.9779,828.06602 c 1.6637,-0.4395 40.69118,-15.2266 86.72774,-32.85991 l 83.70282,-32.06078 -0.27474,-49.28289 c -0.15113,-27.10554 -0.68093,-71.61995 -1.17735,-98.92095 -0.49643,-27.301 -0.96884,-49.62583 -1.04982,-49.61073 -0.081,0.0151 -39.11848,14.5185 -86.75001,32.22979 l -86.60278,32.20235 0.43414,94.15391 c 0.23877,51.78466 0.77861,96.5828 1.19961,99.55123 l 0.76549,5.39726 3.0249,-0.79928 z m -21.61815,-2.28097 c 0.38725,0.0169 0.50762,-27.05808 0.26749,-60.16809 -0.24012,-33.11014 -0.8738,-77.61988 -1.40817,-98.91051 l -0.97159,-38.71038 -73.04659,-34.22389 c -40.17564,-18.82315 -73.26131,-34.00919 -73.52372,-33.74678 -0.26242,0.26242 0.0575,44.38232 0.71087,98.04415 l 1.18798,97.56711 1.22289,1.13837 c 0.67257,0.62594 33.5405,16.40215 73.03981,35.05807 39.49932,18.65593 72.13378,33.93435 72.52103,33.95195 z m 213.69059,-70.98794 c 2.90437,-1.04107 37.59828,-14.25059 77.0976,-29.3544 39.49932,-15.10367 77.04479,-29.47804 83.43438,-31.94305 l 11.61745,-4.48166 0,-98.26686 0,-98.26691 -89.62945,33.24115 -89.62946,33.24115 0.91233,51.39839 c 0.50179,28.26912 0.91327,72.75691 0.91441,98.86181 l 10e-4,47.46353 5.28066,-1.89315 z m -378.36594,-6.55337 0.78524,0.12251 -0.56408,-68.64854 c -0.31025,-37.75666 -0.98044,-82.21053 -1.48933,-98.78634 l -0.92525,-30.13802 -74.57971,-34.92651 c -41.01883,-19.20958 -74.644,-34.79678 -74.72259,-34.63824 -0.0786,0.15856 1.27614,42.81211 3.01049,94.78569 1.73437,51.97357 3.35875,96.61312 3.60975,99.19895 l 0.45636,4.70161 71.81694,34.10333 c 39.49931,18.75676 72.17029,34.15825 72.60218,34.22556 z M 482.21697,614.0295 c 1.16175,-0.23284 38.5488,-13.92335 83.08235,-30.42334 44.53354,-16.49999 81.40971,-30.3781 81.94704,-30.84025 l 0.97696,-0.84026 -70.07428,-32.74008 c -38.54085,-18.00704 -70.98127,-32.75207 -72.08981,-32.76674 -1.10855,-0.0146 -39.23341,13.45102 -84.72192,29.92372 -45.48852,16.47272 -82.71715,30.31352 -82.7303,30.75732 -0.0127,0.44382 31.81845,15.77981 70.73689,34.07997 l 70.76081,33.27303 2.11226,-0.42337 z M 671.7483,543.76608 c 0.84696,-0.15921 39.93005,-14.54726 86.8513,-31.97343 l 85.31142,-31.68394 -1.78529,-1.00103 c -0.98192,-0.55057 -34.20118,-14.64992 -73.82066,-31.3319 -39.61947,-16.68197 -72.6601,-30.33087 -73.42361,-30.33087 -0.7635,0 -36.4102,12.74442 -79.21488,28.32094 -42.80467,15.5765 -79.96573,29.07867 -82.58012,30.00478 l -4.75344,1.68384 70.93768,33.30054 c 39.01572,18.31531 71.63064,33.17027 72.4776,33.01107 z m -354.99192,-7.14352 c 0.7745,-0.25156 38.64864,-13.9771 84.16475,-30.50119 l 82.75659,-30.0438 -1.08243,-1.04267 c -0.59532,-0.57346 -31.81583,-15.40023 -69.3789,-32.94836 -37.56308,-17.54811 -68.62258,-32.01389 -69.02112,-32.14613 -0.39854,-0.13223 -39.20816,13.06679 -86.24358,29.33122 -47.03542,16.26442 -85.50876,29.88852 -85.49628,30.27577 0.0127,0.38724 32.16847,15.74048 71.45774,34.11831 l 71.43506,33.41422 1.40817,-0.45737 z m 193.6241,-70.25809 c 1.93624,-0.70281 38.37278,-13.94385 80.97008,-29.42455 42.5973,-15.48071 77.91372,-28.59689 78.48091,-29.14709 l 1.03128,-1.00034 -71.44004,-30.08467 c -39.29202,-16.54655 -72.07372,-30.08173 -72.84821,-30.07816 -0.7745,0.004 -36.73578,12.25642 -79.91395,27.22854 -43.17817,14.97213 -78.50503,27.57728 -78.50412,28.01145 9e-4,0.43418 31.20958,15.41065 69.35263,33.28102 l 69.35098,32.49161 3.52044,-1.27781 z"
     id="path3346"
     inkscape:connector-curvature="0" />
</svg>
